<?xml version="1.0" encoding="utf-8"?>
<!-- Generator: Adobe Illustrator 28.2.0, SVG Export Plug-In . SVG Version: 6.00 Build 0)  -->
<svg version="1.1" id="Warstwa_1" xmlns="http://www.w3.org/2000/svg" xmlns:xlink="http://www.w3.org/1999/xlink" x="0px" y="0px"
	 viewBox="0 0 800 800" style="enable-background:new 0 0 800 800;" xml:space="preserve">
<style type="text/css">
	.st0{fill-rule:evenodd;clip-rule:evenodd;fill:#FFFFFF;stroke:#FFFFFF;stroke-miterlimit:10;}
</style>
<path class="st0" d="M450,100c-9.2,0-16.7,7.5-16.7,16.7V400c0,18.4-14.9,33.3-33.3,33.3c-18.4,0-33.3-14.9-33.3-33.3V183.3
	c0-9.2-7.5-16.7-16.7-16.7s-16.7,7.5-16.7,16.7v282.3c0,36.9-45.8,54.1-70.1,26.3l-84.9-97c-5.3-6-13.2-9-21.1-8
	c-18.8,2.3-27.6,24.5-15.6,39.1l156.3,191.1c43,52.5,107.2,82.9,175,82.9c107,0,193.7-86.7,193.7-193.7V250
	c0-9.2-7.5-16.7-16.7-16.7c-9.2,0-16.7,7.5-16.7,16.7v150c0,18.4-14.9,33.3-33.3,33.3c-18.4,0-33.3-14.9-33.3-33.3V183.3
	c0-9.2-7.5-16.7-16.7-16.7c-9.2,0-16.7,7.5-16.7,16.7V400c0,18.4-14.9,33.3-33.3,33.3s-33.3-14.9-33.3-33.3V116.7
	C466.7,107.5,459.2,100,450,100z M532,101.9c-7-39-41-68.6-82-68.6s-75.1,29.6-82,68.6c-5.8-1.3-11.8-1.9-18-1.9
	c-46,0-83.3,37.3-83.3,83.3v211.3L228.5,351c-19.8-22.7-49.6-34-79.5-30.3c-70.8,8.9-104.2,92.2-59,147.5l156.3,191.1
	c55.6,68,138.8,107.4,226.6,107.4c143.8,0,260.4-116.6,260.4-260.4V250c0-46-37.3-83.3-83.3-83.3c-6.2,0-12.2,0.7-18,1.9
	c-7-39-41-68.6-82-68.6C543.8,100,537.8,100.7,532,101.9z"/>
</svg>
