<?xml version="1.0" encoding="utf-8"?>
<!-- Generator: Adobe Illustrator 28.2.0, SVG Export Plug-In . SVG Version: 6.00 Build 0)  -->
<svg version="1.1" id="Layer_9" xmlns="http://www.w3.org/2000/svg" xmlns:xlink="http://www.w3.org/1999/xlink" x="0px" y="0px"
	 viewBox="0 0 512 512" style="enable-background:new 0 0 512 512;" xml:space="preserve">
<style type="text/css">
	.st0{fill-rule:evenodd;clip-rule:evenodd;fill:#FFFFFF;}
</style>
<path class="st0" d="M256,512C114.6,512,0,397.4,0,256C0,114.6,114.6,0,256,0c17.3,0,34.1,1.7,50.4,5c7.7,1.2,13.6,7.8,13.6,15.8
	c0,8.8-7.2,16-16,16c-1.1,0-2.1-0.1-3.1-0.3l0,0.1c-14.5-3-29.5-4.5-44.9-4.5c-72.3,0-136.4,34.4-177.3,87.5l89.5,270c0,0,0,0,0,0
	c0.3,1.3,1,2.6,2.1,3.7c3.1,3.1,8.2,3.1,11.3,0c0.9-0.9,1.6-2,1.9-3.1c0,0,0,0,0,0l24.9-75.2c2.3-6.3,8.2-10.8,15.3-10.8
	c9,0,16.4,7.3,16.4,16.4c0,2.2-0.5,4.4-1.3,6.3l0.1,0l-32.8,99c-1.5,4.6-4,8.8-7.6,12.4c-12.5,12.5-32.8,12.5-45.2,0
	c-3.5-3.5-6-7.6-7.5-12L56.1,155.3C40.8,185.6,32,219.7,32,256c0,123.7,100.3,224,224,224c123.7,0,224-100.3,224-224
	c0-42.2-12-81.5-32.3-115.2c-1.5-7.3-7.9-12.8-15.7-12.8c-8.8,0-16,7.2-16,16c0,8.2,15.3,69.6,8.9,104.5l-58.8,177.6
	c-1.5,4.4-4,8.5-7.5,12c-12.5,12.5-32.8,12.5-45.3,0c-3.5-3.5-6-7.8-7.6-12.2L256,275.7l0,0.1l-17.3-52l0,0l-30.1-90.8
	c-2.8-8.4,1.9-17.5,10.5-20.2c8.6-2.7,17.9,1.9,20.7,10.3l88.4,266.5c0,0,0,0,0,0c0.3,1.3,1,2.6,2.1,3.7c3.1,3.1,8.2,3.1,11.3,0
	c0.9-0.9,1.6-2,1.9-3.1c0,0,0,0,0,0l48.2-145.6c5.1-26.7-7.8-76.4-7.8-101c0-26.2,21.3-47.5,47.5-47.5c17.7,0,32.9,9.7,41,24h0.3
	c24.8,39.4,39.2,86,39.2,136C512,397.4,397.4,512,256,512L256,512z M368,64c-8.8,0-16-7.2-16-16c0-8.8,7.2-16,16-16
	c8.8,0,16,7.2,16,16C384,56.8,376.8,64,368,64L368,64z"/>
</svg>
