<?xml version="1.0" encoding="utf-8"?>
<!-- Generator: Adobe Illustrator 28.2.0, SVG Export Plug-In . SVG Version: 6.00 Build 0)  -->
<svg version="1.1" id="Warstwa_1" xmlns="http://www.w3.org/2000/svg" xmlns:xlink="http://www.w3.org/1999/xlink" x="0px" y="0px"
	 viewBox="0 0 800 800" style="enable-background:new 0 0 800 800;" xml:space="preserve">
<style type="text/css">
	.st0{fill-rule:evenodd;clip-rule:evenodd;fill:#FFFFFF;}
</style>
<g id="style_x3D_stroke">
	<g id="setting">
		<path id="vector__x28_Stroke_x29_" class="st0" d="M400,325c-41.4,0-75,33.6-75,75s33.6,75,75,75s75-33.6,75-75S441.4,325,400,325
			z M275,400c0-69,56-125,125-125c69,0,125,56,125,125c0,69-56,125-125,125C331,525,275,469,275,400z"/>
		<path id="vector__x28_Stroke_x29__x5F_2" class="st0" d="M320.1,125.7c-8.9-14.9-27.7-19.5-41.7-11.2l-0.4,0.2l-57.7,33
			c-18.2,10.4-24.5,34.1-14.1,52.1l-21.6,12.5l21.6-12.5c17.8,30.8,22.6,64.5,6.7,92.1c-15.9,27.6-47.5,40.4-83,40.4
			c-21.1,0-38.3,17.4-38.3,38.3v58.7c0,20.9,17.2,38.3,38.3,38.3c35.5,0,67.1,12.8,83,40.4c15.9,27.6,11.1,61.4-6.7,92.1
			c-10.4,18.1-4.1,41.7,14.1,52.1l58,33.2c14,8.3,32.7,3.7,41.7-11.2l3.6-6.2c17.8-30.8,44.7-51.7,76.6-51.7
			c31.9,0,58.7,21,76.4,51.8c0,0,0,0,0,0l3.5,6.1c8.9,14.9,27.7,19.5,41.7,11.2l0.4-0.2l57.7-33c18.2-10.4,24.6-33.7,14.1-52.2
			c-17.8-30.8-22.6-64.4-6.7-92.1c15.9-27.6,47.5-40.4,83-40.4c21.1,0,38.3-17.4,38.3-38.3v-58.7c0-21.1-17.4-38.3-38.3-38.3
			c-35.5,0-67.1-12.7-83-40.4c-15.9-27.6-11.1-61.4,6.7-92.1c10.4-18.1,4.1-41.7-14.1-52.1l-58-33.2c-14-8.3-32.7-3.7-41.7,11.2
			l-3.6,6.2c-17.8,30.8-44.7,51.7-76.6,51.7c-31.9,0-58.7-21-76.4-51.8c0,0,0,0,0-0.1L320.1,125.7z M253.1,71.4
			c38.6-22.8,87.7-8.8,110.1,28.8l0.2,0.3l3.7,6.3l0.1,0.1c12.3,21.5,25.2,26.7,33,26.7c7.9,0,20.8-5.2,33.3-26.8c0,0,0,0,0,0
			l3.8-6.6c22.4-37.7,71.4-51.7,110.1-28.8l57.5,32.9c42.4,24.2,56.8,78.6,32.6,120.5l0,0c-12.5,21.6-10.5,35.3-6.6,42.1
			c3.9,6.8,14.8,15.4,39.7,15.4c48.4,0,88.3,39.4,88.3,88.3v58.7c0,48.4-39.4,88.3-88.3,88.3c-24.8,0-35.8,8.6-39.7,15.4
			c-3.9,6.8-5.9,20.5,6.6,42.1l0.1,0.1c24.1,42.2,9.8,96.2-32.6,120.4c0,0,0,0,0,0l-57.5,32.9c-38.6,22.8-87.7,8.8-110.1-28.8
			l-0.2-0.3l-3.7-6.3l-0.1-0.1c-12.3-21.5-25.2-26.7-33-26.7c-7.9,0-20.8,5.2-33.3,26.8c0,0,0,0,0,0l-3.8,6.6
			c-22.4,37.6-71.4,51.7-110.1,28.8l-57.5-32.9c0,0,0,0,0,0c-42.4-24.2-56.8-78.6-32.6-120.5l0,0c12.5-21.6,10.5-35.3,6.6-42.1
			c-3.9-6.8-14.8-15.4-39.7-15.4c-48.9,0-88.3-39.9-88.3-88.3v-58.7c0-48.4,39.4-88.3,88.3-88.3c24.8,0,35.8-8.6,39.7-15.4
			c3.9-6.8,5.9-20.5-6.6-42.1l0,0c-24.2-41.9-9.8-96.3,32.6-120.5L253.1,71.4z"/>
	</g>
</g>
</svg>
