<?xml version="1.0" encoding="utf-8"?>
<!-- Generator: Adobe Illustrator 28.2.0, SVG Export Plug-In . SVG Version: 6.00 Build 0)  -->
<svg version="1.1" id="Warstwa_1" xmlns="http://www.w3.org/2000/svg" xmlns:xlink="http://www.w3.org/1999/xlink" x="0px" y="0px"
	 viewBox="0 0 800 800" style="enable-background:new 0 0 800 800;" xml:space="preserve">
<style type="text/css">
	.st0{fill:none;stroke:#FFFFFF;stroke-width:66.6667;stroke-linecap:round;stroke-linejoin:round;stroke-miterlimit:133.3333;}
</style>
<path class="st0" d="M100,333.3c0-18.4,14.9-33.3,33.3-33.3h100v400h-100c-18.4,0-33.3-14.9-33.3-33.3V333.3z"/>
<path class="st0" d="M233.3,366.7v266.7l66.4,44.3c21.9,14.6,47.6,22.4,74,22.4h174.9c48.9,0,90.6-35.3,98.6-83.6l39.8-238.8
	c6.8-40.6-24.6-77.6-65.8-77.6H466.7"/>
<path class="st0" d="M466.7,300l22.9-114.5c6-29.8-11.2-59.3-40-69l0,0c-28.4-9.5-59.5,3.4-72.9,30.2l-110,219.9h-33.3"/>
</svg>
