<?xml version="1.0" encoding="utf-8"?>
<!-- Generator: Adobe Illustrator 28.2.0, SVG Export Plug-In . SVG Version: 6.00 Build 0)  -->
<svg version="1.1" id="Warstwa_1" xmlns="http://www.w3.org/2000/svg" xmlns:xlink="http://www.w3.org/1999/xlink" x="0px" y="0px"
	 viewBox="0 0 800 800" style="enable-background:new 0 0 800 800;" xml:space="preserve">
<style type="text/css">
	.st0{fill:none;stroke:#FFFFFF;stroke-width:66.6667;stroke-linecap:round;stroke-linejoin:round;stroke-miterlimit:133.3333;}
</style>
<path class="st0" d="M600,266.7V240c0-37.3,0-56-7.3-70.3c-6.4-12.5-16.6-22.7-29.1-29.1c-14.3-7.3-32.9-7.3-70.3-7.3H206.7
	c-37.3,0-56,0-70.3,7.3c-12.5,6.4-22.7,16.6-29.1,29.1C100,184,100,202.7,100,240v26.7 M700,400h-66.7c-36.8,0-66.7,29.8-66.7,66.7
	s29.8,66.7,66.7,66.7H700 M100,266.7V560c0,37.3,0,56,7.3,70.3c6.4,12.5,16.6,22.7,29.1,29.1c14.3,7.3,32.9,7.3,70.3,7.3h386.7
	c37.3,0,56,0,70.3-7.3c12.5-6.4,22.7-16.6,29.1-29.1C700,616,700,597.3,700,560V373.3c0-37.3,0-56-7.3-70.3
	c-6.4-12.5-16.6-22.7-29.1-29.1c-14.3-7.3-32.9-7.3-70.3-7.3H100z"/>
</svg>
